<?xml version="1.0" encoding="utf-8"?>
<!-- Generator: Adobe Illustrator 26.0.0, SVG Export Plug-In . SVG Version: 6.00 Build 0)  -->
<svg version="1.1" id="Layer_1" xmlns="http://www.w3.org/2000/svg" xmlns:xlink="http://www.w3.org/1999/xlink" x="0px" y="0px"
	 viewBox="0 0 200 200" style="enable-background:new 0 0 200 200;" xml:space="preserve">
<g>
	<path d="M103.7,29.5c7.1,1,7.1,1,7.1,8.2c0,3.3,0,6.7,0,10.3c-7.3,0-14.1,0-21.5,0c0-5.4-0.1-10.7,0.1-16c0-0.7,1.4-1.6,2.2-1.9
		c1.4-0.4,2.9-0.2,4.7-0.4c0-3.7,0-7.2,0-10.6c0-2.5,0.8-4.6,3.7-4.5c2.9,0,3.6,2.2,3.6,4.7C103.7,22.6,103.7,26.1,103.7,29.5z"/>
	<path d="M128.4,106.7c0-7.4-0.1-14,0.1-20.6c0-0.8,0.9-2,1.7-2.5c4.5-2.5,9-4.8,13.6-7.1c2.7-1.4,4-0.4,4.1,2.5
		c0,4.6,0.1,9.2-0.1,13.8c0,0.8-0.6,2-1.3,2.4C140.8,99,135,102.6,128.4,106.7z"/>
	<path d="M70.8,106.2c-5.7-3.5-11.3-7-16.8-10.6c-0.9-0.6-1.7-1.9-1.8-2.9c-0.2-4.6-0.1-9.2-0.1-13.8c0-3.1,1.6-3.6,4.2-2.3
		c4.4,2.3,8.9,4.5,13.2,6.9c0.8,0.5,1.9,1.5,1.9,2.3c0.1,6.5,0,13,0,19.4C71.5,105.6,71.1,105.9,70.8,106.2z"/>
	<path d="M29.7,143.8"/>
	<path d="M37,131.3c0-1.1-1.1-2.7-2.2-3.3c-5.5-3-11.1-5.7-16.6-8.5c-4.5-2.2-5.2-1.8-5.2,3.1c0,22,0,43.9,0,65.9
		c0,1.1,0.1,2.1,0.2,3.2c8.1,0,15.8,0,23.6,0c0.1-0.7,0.3-1.1,0.3-1.6C37.1,170.5,37.2,150.9,37,131.3z M33.6,174.9
		c0,0.7-0.6,1.3-1.3,1.3H17.8c-0.7,0-1.3-0.6-1.3-1.3v-3.6c0-0.7,0.6-1.3,1.3-1.3h14.6c0.7,0,1.3,0.6,1.3,1.3V174.9z M33.6,160.2
		c0,0.7-0.6,1.3-1.3,1.3H17.8c-0.7,0-1.3-0.6-1.3-1.3v-3.6c0-0.7,0.6-1.3,1.3-1.3h14.6c0.7,0,1.3,0.6,1.3,1.3V160.2z M33.6,145.6
		c0,0.7-0.6,1.3-1.3,1.3H17.8c-0.7,0-1.3-0.6-1.3-1.3V142c0-0.7,0.6-1.3,1.3-1.3h14.6c0.7,0,1.3,0.6,1.3,1.3V145.6z"/>
	<path d="M187,121.4c0-3.3-1.2-4-4.2-2.5c-5.7,2.8-11.3,5.9-17,8.6c-2.4,1.1-2.9,2.5-2.9,4.9c0.1,18.5,0,37,0.1,55.4
		c0,1.2,0.1,2.4,0.2,3.8c7.9,0,15.6,0,23.6,0c0.2-0.7,0.3-1,0.3-1.4C187,167.3,187,144.4,187,121.4z M183.4,174.9
		c0,0.7-0.6,1.3-1.3,1.3h-14.6c-0.7,0-1.3-0.6-1.3-1.3v-3.6c0-0.7,0.6-1.3,1.3-1.3h14.6c0.7,0,1.3,0.6,1.3,1.3V174.9z M183.4,160.2
		c0,0.7-0.6,1.3-1.3,1.3h-14.6c-0.7,0-1.3-0.6-1.3-1.3v-3.6c0-0.7,0.6-1.3,1.3-1.3h14.6c0.7,0,1.3,0.6,1.3,1.3V160.2z M183.4,145.6
		c0,0.7-0.6,1.3-1.3,1.3h-14.6c-0.7,0-1.3-0.6-1.3-1.3V142c0-0.7,0.6-1.3,1.3-1.3h14.6c0.7,0,1.3,0.6,1.3,1.3V145.6z"/>
	<path d="M155.5,103.4c0-3.5-1.3-4.2-4.4-2.3c-6.6,4.1-13,8.4-19.6,12.4c-2.3,1.4-3.2,2.9-3.2,5.6c0.1,22.9,0.1,45.7,0.1,68.6
		c0,1.3,0,2.6,0,4.1c9.2,0,17.9,0,26.9,0c0.1-0.7,0.3-1.1,0.3-1.4C155.5,161.3,155.5,132.3,155.5,103.4z M152,172.9
		c0,1-0.8,1.9-1.9,1.9h-16.4c-1,0-1.9-0.8-1.9-1.9v-7.6c0-1,0.8-1.9,1.9-1.9h16.4c1,0,1.9,0.8,1.9,1.9V172.9z M152,152.2
		c0,1-0.8,1.9-1.9,1.9h-16.4c-1,0-1.9-0.8-1.9-1.9v-7.6c0-1,0.8-1.9,1.9-1.9h16.4c1,0,1.9,0.8,1.9,1.9V152.2z M152,131.6
		c0,1-0.8,1.9-1.9,1.9h-16.4c-1,0-1.9-0.8-1.9-1.9V124c0-1,0.8-1.9,1.9-1.9h16.4c1,0,1.9,0.8,1.9,1.9V131.6z"/>
	<path d="M71.5,117.4c0-1.1-1.2-2.7-2.2-3.3c-6.5-4.3-13-8.4-19.6-12.4c-1.2-0.7-2.7-1-4.1-1.4c-0.4,1.5-1.1,2.9-1.2,4.4
		c-0.1,27.7-0.1,55.4-0.1,83.2c0,1.3,0,2.6,0,3.9c9.3,0,18,0,26.8,0c0.1-0.6,0.3-1.1,0.3-1.6C71.6,165.9,71.7,141.6,71.5,117.4z
		 M68.1,172.9c0,1-0.8,1.9-1.9,1.9H49.8c-1,0-1.9-0.8-1.9-1.9v-7.6c0-1,0.8-1.9,1.9-1.9h16.4c1,0,1.9,0.8,1.9,1.9V172.9z
		 M68.1,152.2c0,1-0.8,1.9-1.9,1.9H49.8c-1,0-1.9-0.8-1.9-1.9v-7.6c0-1,0.8-1.9,1.9-1.9h16.4c1,0,1.9,0.8,1.9,1.9V152.2z
		 M68.1,131.6c0,1-0.8,1.9-1.9,1.9H49.8c-1,0-1.9-0.8-1.9-1.9V124c0-1,0.8-1.9,1.9-1.9h16.4c1,0,1.9,0.8,1.9,1.9V131.6z"/>
	<path d="M116.8,55.2c-11,0.1-22,0-33,0c-4.8,0-4.9,0.1-4.9,5.1c0,42.5,0,84.9,0,127.4c0,1.3,0,2.6,0,3.7c4.2,0,7.7,0,11.5,0
		c0-8.1,0.1-15.8,0-23.5c0-2.9,1-4.1,4-4c3.2,0.1,6.5,0,9.7,0c5.3,0,5.5,0.1,5.5,5.4c0,7.3,0,14.7,0,22.2c3.9,0,7.4,0,11.3,0
		c0.1-1,0.2-1.9,0.2-2.7c0-43.2,0-86.4,0.1-129.6C121,56.1,119.8,55.2,116.8,55.2z M115.2,143.1c0,1.6-1.3,2.8-2.8,2.8H87.5
		c-1.6,0-2.8-1.3-2.8-2.8v-11.5c0-1.6,1.3-2.8,2.8-2.8h24.8c1.6,0,2.8,1.3,2.8,2.8V143.1z M115.2,111.8c0,1.6-1.3,2.8-2.8,2.8H87.5
		c-1.6,0-2.8-1.3-2.8-2.8v-11.5c0-1.6,1.3-2.8,2.8-2.8h24.8c1.6,0,2.8,1.3,2.8,2.8V111.8z M115.2,80.4c0,1.6-1.3,2.8-2.8,2.8H87.5
		c-1.6,0-2.8-1.3-2.8-2.8V68.9c0-1.6,1.3-2.8,2.8-2.8h24.8c1.6,0,2.8,1.3,2.8,2.8V80.4z"/>
</g>
</svg>
